<?xml version="1.0" encoding="UTF-8"?>
<svg width="1440px" height="728px" viewBox="0 0 1440 728" version="1.1" xmlns="http://www.w3.org/2000/svg" xmlns:xlink="http://www.w3.org/1999/xlink">
    <!-- Generator: Sketch 63.1 (92452) - https://sketch.com -->
    <title>Path 2</title>
    <desc>Created with Sketch.</desc>
    <g id="Home" stroke="none" stroke-width="1" fill="none" fill-rule="evenodd">
        <g transform="translate(0.000000, -4750.000000)" fill="#4CAF50" id="Path-2">
            <path d="M-515.837607,4776.23762 C-493.494887,4684.97097 -386.530552,4661.33919 -251.000876,4702.56561 C-115.471201,4743.79204 -152.443837,4879.36088 -13.8454378,4898.61383 C124.752962,4917.86678 87.1172257,4833.75881 188.499456,4822.77389 C289.881686,4811.78896 285.140174,4889.0052 442.063563,4871.65076 C598.986953,4854.29632 625.13392,4744.01044 832.921638,4751.03852 C1040.70936,4758.0666 1132.4913,4857.0521 1239.23668,4898.61383 C1310.40026,4926.32165 1400.36765,4901.04167 1509.13883,4822.77389 C1882.28706,5242.651 1882.28706,5559.45249 1509.13883,5773.17836 C949.4165,6093.76717 -59.5981566,6051.36512 -524.616005,5773.17836 C-989.633853,5494.99161 -538.180327,4867.50428 -515.837607,4776.23762 Z"></path>
        </g>
    </g>
</svg>