<?xml version="1.0" encoding="UTF-8"?>
<svg width="1213px" height="1416px" viewBox="0 0 1213 1416" version="1.1" xmlns="http://www.w3.org/2000/svg" xmlns:xlink="http://www.w3.org/1999/xlink">
    <!-- Generator: Sketch 63.1 (92452) - https://sketch.com -->
    <title>right pic</title>
    <desc>Created with Sketch.</desc>
    <g id="Home" stroke="none" stroke-width="1" fill="none" fill-rule="evenodd">
        <g transform="translate(-133.000000, -687.000000)" id="right-pic">
            <g transform="translate(710.500000, 1363.000000) scale(-1, 1) rotate(16.000000) translate(-710.500000, -1363.000000) translate(72.000000, 688.000000)">
                <path d="M199.82422,250.468042 C167.478709,223.21131 330.707088,201.013922 689.509357,183.875877 C947.255689,171.564728 1262.69048,332.067666 1256.73758,550.714547 C1252.92623,690.703588 1073.98231,889.710108 960.829141,1061.9008 C881.677621,1182.34951 859.782848,1307.49005 845.849429,1314.30498 C756.902399,1357.80955 580.874909,1308.06948 512.873656,1294.61967 C441.97896,1280.59757 356.46836,1183.02321 256.341857,1001.89659 L199.82422,250.468042 Z" id="wave" fill="#8CFAC7" opacity="0.6" transform="translate(726.316320, 757.500867) scale(-1, -1) rotate(-2.000000) translate(-726.316320, -757.500867) "></path>
                <path d="M23.9057466,86.2026686 C-8.4397642,58.9459368 154.788615,36.7485486 513.590884,19.6105041 C771.337216,7.29935524 1086.77201,167.802293 1080.81911,386.449174 C1077.00775,526.438215 898.063839,725.444735 784.910668,897.635422 C705.759148,1018.08414 683.864375,1143.22468 669.930956,1150.0396 C580.983925,1193.54417 404.956436,1143.8041 336.955183,1130.35429 C266.060487,1116.3322 180.549887,1018.75784 80.4233838,837.63122 L23.9057466,86.2026686 Z" id="wave" fill="#FAEC8C" transform="translate(550.397846, 593.235493) scale(-1, -1) rotate(-2.000000) translate(-550.397846, -593.235493) "></path>
            </g>
        </g>
    </g>
</svg>